<svg xmlns="http://www.w3.org/2000/svg" viewBox="0 0 2000 2000" width="2000" height="2000">
  <rect width="2000" height="2000" fill="#0A0A0A"/>
  <g transform="translate(579.58, 1265.12) scale(0.84, -0.84)">
    <path d="M40 -110 335 750H415L120 -110Z" fill="#6B8290"/>
  </g>
  <g transform="translate(939.10, 1265.12) scale(0.84, -0.84)">
    <path d="M295 -12Q165 -12 104.0 39.0Q43 90 37 169L189 174Q196 136 220.0 115.0Q244 94 295 94Q378 94 378 148Q378 165 370.0 176.0Q362 187 339.0 195.5Q316 204 271 211Q187 226 139.5 246.5Q92 267 72.5 298.5Q53 330 53 376Q53 453 113.0 500.5Q173 548 292 548Q372 548 424.0 524.0Q476 500 502.5 458.0Q529 416 533 364L383 358Q381 395 358.5 418.5Q336 442 290 442Q250 442 229.0 425.5Q208 409 208 382Q208 353 228.5 338.5Q249 324 304 316Q389 303 439.0 282.0Q489 261 510.5 229.0Q532 197 532 150Q532 72 468.0 30.0Q404 -12 295 -12Z" fill="#F4F1EA"/>
  </g>
</svg>